{"title":"Pola X (Leos Carax, 1999)","uid":7971039,"size":738314707,"categoryP":"video","categoryS":"movies","magnet":"?xt=urn:btih:89c38fa64546c68e2ca7650c1c5d1f0757e7917d&amp;dn=Pola+X+%28Leos+Carax%2C+1999%29&amp;tr=udp%3A%2F%2Ftracker.openbittorrent.com%3A80&amp;tr=udp%3A%2F%2Fopen.demonii.com%3A1337&amp;tr=udp%3A%2F%2Ftracker.coppersurfer.tk%3A6969&amp;tr=udp%3A%2F%2Fexodus.desync.com%3A6969","seeders":23,"leechers":2,"uploader":"moonflux","files":-1,"time":1356844271,"description":"Pierre, a young man of privilege, whose anonymously-published novel is a hit and who's about to marry his blond cousin, Lucie, abandons all when a dark-haired vagrant tells him her secret late one night in the woods: that she is Isabelle, his sister, abandoned by their father.\n\nGeneral\nComplete name : Pola.X.1999.DVDRip.XviD-FeDePe.avi\nFormat : AVI\nFormat/Info : Audio Video Interleave\nFile size : 704 MiB\nDuration : 2h 8mn\nOverall bit rate : 764 Kbps\nWriting library : VirtualDub build 13130/release\n\nVideo\nID : 0\nFormat : MPEG-4 Visual\nFormat settings, BVOP : Yes\nFormat settings, QPel : No\nFormat settings, GMC : No warppoints\nFormat settings, Matrix : Default (H.263)\nCodec ID : DIVX\nCodec ID/Info : Project Mayo\nCodec ID/Hint : DivX 4\nDuration : 2h 8mn\nBit rate : 691 Kbps\nWidth : 656 pixels\nHeight : 400 pixels\nDisplay aspect ratio : 1.640\nFrame rate : 25.000 fps\nColor space : YUV\nChroma subsampling : 4:2:0\nBit depth : 8 bits\nScan type : Progressive\nCompression mode : Lossy\nBits/(Pixel*Frame) : 0.105\nStream size : 637 MiB (90%)\n\nAudio\nID : 1\nFormat : WMA\nFormat version : Version 2\nCodec ID : 161\nCodec ID/Info : Windows Media Audio\nDuration : 2h 8mn\nBit rate : 64.1 Kbps\nChannel(s) : 2 channels\nSampling rate : 44.1 KHz\nBit depth : 16 bits\nStream size : 59.0 MiB (8%)\nInterleave, duration : 46 ms (1.16 video frame)\nInterleave, preload duration : 464 ms","torrent":{"xt":"urn:btih:89c38fa64546c68e2ca7650c1c5d1f0757e7917d","amp;dn":"Pola+X+%28Leos+Carax%2C+1999%29","amp;tr":["udp%3A%2F%2Ftracker.openbittorrent.com%3A80","udp%3A%2F%2Fopen.demonii.com%3A1337","udp%3A%2F%2Ftracker.coppersurfer.tk%3A6969","udp%3A%2F%2Fexodus.desync.com%3A6969"],"infoHash":"89c38fa64546c68e2ca7650c1c5d1f0757e7917d","infoHashBuffer":{"type":"Buffer","data":[137,195,143,166,69,70,198,142,44,167,101,12,28,93,31,7,87,231,145,125]},"announce":[],"urlList":[]}}